<?xml version="1.0" standalone="no"?>
<!DOCTYPE svg PUBLIC "-//W3C//DTD SVG 20010904//EN"
 "http://www.w3.org/TR/2001/REC-SVG-20010904/DTD/svg10.dtd">
<svg version="1.0" xmlns="http://www.w3.org/2000/svg"
 width="188.000000pt" height="188.000000pt" viewBox="0 0 188.000000 188.000000"
 preserveAspectRatio="xMidYMid meet">
<metadata>
Created by potrace 1.14, written by Peter Selinger 2001-2017
</metadata>
<g transform="translate(0.000000,188.000000) scale(0.100000,-0.100000)"
fill="#000000" stroke="none">
<path d="M0 940 l0 -940 940 0 940 0 0 940 0 940 -940 0 -940 0 0 -940z m1300
558 c-10 -71 -29 -112 -80 -176 -43 -54 -111 -98 -136 -88 -8 3 -14 20 -14 38
-1 18 -7 50 -14 70 -13 37 -13 37 15 43 81 18 200 134 217 210 l6 30 6 -37 c4
-21 4 -61 0 -90z m-919 70 c49 -98 130 -169 211 -183 l36 -7 -18 -42 c-9 -23
-21 -56 -25 -74 -8 -40 -27 -41 -86 -4 -63 41 -106 94 -124 154 -17 56 -32
198 -22 198 4 0 16 -19 28 -42z m1288 -413 c1 -52 -19 -159 -32 -171 -2 -3
-19 9 -37 26 -17 16 -46 34 -64 38 -27 7 -31 13 -34 44 -3 35 0 39 52 72 30
19 65 49 78 66 23 31 23 31 29 8 4 -13 7 -50 8 -83z m-396 23 c22 -23 80 -48
115 -48 7 0 12 -15 12 -40 0 -37 -2 -40 -40 -50 -22 -6 -55 -24 -74 -40 -18
-17 -36 -30 -39 -30 -2 0 -15 23 -27 52 -24 56 -24 132 0 193 11 27 13 28 20
10 4 -11 19 -32 33 -47z m-231 -102 c-3 -58 -51 -155 -95 -192 -27 -23 -35
-24 -84 -18 -36 4 -69 2 -94 -6 -37 -13 -41 -12 -76 16 -50 41 -91 118 -99
186 -7 56 -7 56 22 61 16 2 119 4 229 3 l200 -1 -3 -49z m12 -196 c-27 -68
-27 -68 -51 -53 -12 8 -23 20 -23 27 0 6 17 44 37 83 l38 73 13 -31 c11 -27
10 -38 -14 -99z m116 76 c41 -27 113 -73 159 -103 l84 -54 -6 -54 c-5 -51 -11
-61 -88 -147 -45 -51 -98 -115 -118 -141 l-36 -48 -7 153 c-9 190 -21 275 -52
372 -13 43 -21 76 -18 74 4 -2 41 -25 82 -52z m-536 -49 l27 -37 -22 -32 -23
-32 -18 40 c-18 41 -22 72 -12 99 7 18 7 18 48 -38z m-96 -29 c-34 -107 -47
-207 -48 -354 l0 -141 -72 -6 c-40 -4 -84 -9 -97 -13 l-24 -7 7 63 c14 119 75
280 149 390 32 48 96 130 102 130 1 0 -6 -28 -17 -62z m567 -14 c5 -29 1 -44
-19 -75 -29 -43 -37 -47 -57 -23 -11 13 -10 17 3 25 9 5 24 32 33 59 9 28 20
50 25 50 4 0 11 -16 15 -36z m-492 -74 c7 0 18 5 25 12 6 6 14 10 16 7 3 -2
-10 -22 -29 -44 l-33 -40 -27 25 c-23 22 -26 30 -20 64 9 59 16 62 36 17 10
-23 24 -41 32 -41z m114 39 c27 -17 31 -24 22 -35 -18 -22 -43 -16 -67 15 -33
45 -11 55 45 20z m141 13 c9 -6 4 -16 -17 -36 l-30 -28 -26 28 c-24 26 -25 29
-8 35 25 10 65 10 81 1z m82 1 c0 -5 -9 -23 -20 -41 -18 -29 -22 -31 -40 -20
-21 13 -20 14 12 41 32 27 48 34 48 20z m45 -33 c8 -13 -32 -90 -51 -97 -8 -3
-21 0 -29 7 -13 11 -11 17 15 47 17 18 30 38 30 43 0 13 27 13 35 0z m111
-110 c-23 -28 -25 -28 -40 -11 -21 23 -20 30 8 52 14 11 28 30 32 42 7 19 9
17 16 -16 7 -34 5 -43 -16 -67z m-361 64 c38 25 48 19 23 -14 -26 -36 -30 -36
-68 -8 -37 27 -40 47 -4 23 23 -15 27 -15 49 -1z m123 -34 c-25 -35 -26 -35
-50 -13 -25 22 -24 46 2 38 13 -4 22 -1 26 9 5 12 10 13 25 5 19 -9 18 -11 -3
-39z m-275 -20 c9 0 22 9 31 21 10 15 20 19 36 14 21 -7 20 -10 -26 -56 l-48
-49 -33 32 c-31 30 -41 57 -26 71 3 4 16 -2 28 -13 12 -11 29 -20 38 -20z
m430 34 c3 -4 -7 -33 -24 -65 l-29 -59 -25 16 c-31 20 -32 40 -2 48 12 3 30
19 39 36 17 29 28 36 41 24z m-229 -33 c6 -8 -53 -91 -65 -91 -4 0 -19 16 -34
36 -33 43 -22 67 20 44 22 -12 28 -12 42 3 19 19 29 21 37 8z m84 -57 l-32
-45 -23 24 c-26 25 -23 68 3 46 10 -8 19 -5 36 13 16 16 27 21 35 15 10 -7 5
-20 -19 -53z m172 28 c0 -5 -14 -34 -31 -65 -27 -51 -32 -55 -49 -44 -28 17
-31 33 -7 33 15 -1 28 12 45 42 21 38 42 55 42 34z m62 -67 l-20 -25 -16 25
c-21 31 -20 35 4 35 10 0 25 10 32 23 l13 22 3 -28 c2 -16 -5 -37 -16 -52z
m-524 5 c6 0 23 12 36 27 20 22 28 25 38 15 10 -10 5 -18 -22 -42 -44 -37 -84
-37 -113 2 -28 38 -12 56 22 24 15 -14 32 -26 39 -26z m205 13 c12 -11 -45
-63 -69 -63 -21 0 -59 42 -48 53 3 3 19 -2 36 -11 28 -16 30 -16 46 5 18 24
25 27 35 16z m127 0 c0 -5 -13 -23 -28 -41 -30 -36 -54 -36 -73 0 -9 17 -8 18
11 6 19 -12 24 -10 43 14 21 25 47 37 47 21z m137 -47 c-4 -9 -13 -16 -21 -16
-13 0 -14 4 -4 25 12 28 35 19 25 -9z m-397 4 c0 -5 -7 -10 -16 -10 -8 0 -12
5 -9 10 3 6 10 10 16 10 5 0 9 -4 9 -10z m135 -20 c-3 -5 -11 -10 -16 -10 -6
0 -7 5 -4 10 3 6 11 10 16 10 6 0 7 -4 4 -10z m140 0 c3 -5 -3 -10 -15 -10
-12 0 -18 5 -15 10 3 6 10 10 15 10 5 0 12 -4 15 -10z m-399 -101 c3 -6 17 -8
29 -5 13 3 30 3 39 0 12 -5 9 -11 -15 -31 l-30 -26 -24 23 c-25 24 -33 50 -16
50 6 0 13 -5 17 -11z m604 4 c0 -5 -12 -21 -26 -37 -24 -27 -26 -27 -44 -11
-21 19 -17 42 8 48 29 8 62 7 62 0z m-125 -43 c-19 -36 -29 -37 -50 -7 -15 21
-14 22 7 29 13 3 31 6 41 7 16 1 16 -1 2 -29z m-286 -11 l-34 -28 -17 22 c-10
12 -18 25 -18 28 0 3 23 6 52 6 l52 1 -35 -29z m180 29 c-2 -2 -18 -16 -36
-31 l-31 -29 -23 23 -24 24 30 6 c30 7 92 11 84 7z m-263 -30 c10 -15 -41 -58
-68 -58 -12 0 -32 10 -45 22 -28 26 -31 49 -4 24 21 -19 51 -15 71 9 15 18 36
19 46 3z m298 5 c9 -9 -74 -93 -93 -93 -17 0 -51 29 -51 43 0 5 12 6 26 3 20
-5 33 0 60 24 36 31 46 35 58 23z m186 -27 c-15 -29 -45 -39 -61 -20 -9 11 -7
14 12 14 14 0 30 9 37 21 18 28 29 15 12 -15z m-336 15 c9 -14 -69 -71 -98
-71 -14 0 -30 8 -35 19 -14 25 -2 35 19 16 15 -13 20 -12 50 15 34 31 54 37
64 21z m256 2 c0 -3 -11 -21 -26 -40 -27 -36 -54 -42 -74 -18 -19 23 1 41 28
26 18 -9 24 -7 39 14 17 23 33 32 33 18z m-255 -73 c3 -5 -3 -10 -14 -10 -12
0 -21 5 -21 10 0 6 6 10 14 10 8 0 18 -4 21 -10z m135 0 c0 -5 -4 -10 -10 -10
-5 0 -10 5 -10 10 0 6 5 10 10 10 6 0 10 -4 10 -10z"/>
<path d="M725 919 c-10 -15 3 -25 16 -12 7 7 7 13 1 17 -6 3 -14 1 -17 -5z"/>
<path d="M880 910 c0 -5 7 -10 15 -10 8 0 15 5 15 10 0 6 -7 10 -15 10 -8 0
-15 -4 -15 -10z"/>
</g>
</svg>
